<svg xmlns="http://www.w3.org/2000/svg" viewBox="2592 1121 123.8 93.9"><defs><style>.a{fill:#fdbe40;}.b{fill:#e3472c;}.c{fill:#66342d;}.d{fill:#8fc23e;}.e{fill:#ffd883;}</style></defs><g transform="translate(2592 1121)"><path class="a" d="M112.5,93.9H10.6a5.228,5.228,0,0,1-5.2-5.2v-15a5.228,5.228,0,0,1,5.2-5.2H112.5a5.228,5.228,0,0,1,5.2,5.2v15A5.228,5.228,0,0,1,112.5,93.9Z"/><path class="a" d="M61.8,0C28.4.1,1.3,19.5,1.3,43.4l121.2-.2C122.5,19.3,95.3-.1,61.8,0Z"/><rect class="b" width="112.9" height="7.1" transform="translate(5.5 43.3)"/><path class="c" d="M120.8,62.9H3a3.009,3.009,0,0,1-3-3V52a3.009,3.009,0,0,1,3-3H120.8a3.009,3.009,0,0,1,3,3v7.8A3.031,3.031,0,0,1,120.8,62.9Z"/><path class="d" d="M112.4,62.9H11.3a5.591,5.591,0,0,0-5.6,5.6h0a5.591,5.591,0,0,0,5.6,5.6h1a4.2,4.2,0,0,1,8.4,0h2.7a4.2,4.2,0,0,1,8.4,0h2.9a4.2,4.2,0,0,1,8.4,0h2.4a4.2,4.2,0,0,1,8.4,0h3.4a4.2,4.2,0,0,1,8.4,0H70a4.2,4.2,0,0,1,8.4,0h3.2a4.2,4.2,0,0,1,8.4,0h4a4.2,4.2,0,0,1,8.4,0h2.7a4.225,4.225,0,0,1,4.2-4.2,4.14,4.14,0,0,1,4.2,4.1,5.581,5.581,0,0,0,4.5-5.5h0A5.528,5.528,0,0,0,112.4,62.9Z"/><path class="e" d="M74.6,48.6h33.5L91.3,63.8Z"/></g></svg>