<svg xmlns="http://www.w3.org/2000/svg" viewBox="1624 1710 92.637 128.05"><defs><style>.a{fill:#ffd883;}.b{fill:#fff79b;}.c{fill:#b31e48;}.d{fill:#dc1c4a;}.e{fill:#1f8b95;}.f{fill:#c8db52;}</style></defs><g transform="translate(1624.025 1710)"><path class="a" d="M91.7,23.6a12.911,12.911,0,0,0-7.8-17A117.762,117.762,0,0,0,45.2,0,114.378,114.378,0,0,0,9,5.8,13.049,13.049,0,0,0,.9,23L41.2,124.6a5.421,5.421,0,0,0,10.1,0Z"/><path class="b" d="M85.4,25a11.164,11.164,0,0,0-6.7-14.7A99.109,99.109,0,0,0,45.4,4.6a100.438,100.438,0,0,0-31.2,5,11.268,11.268,0,0,0-7,14.9L41.9,112a4.675,4.675,0,0,0,8.7,0Z"/><circle class="c" cx="10.2" cy="10.2" r="10.2" transform="translate(14.4 10.9)"/><circle class="d" cx="1.7" cy="1.7" r="1.7" transform="translate(18.8 16.1)"/><circle class="d" cx="1.7" cy="1.7" r="1.7" transform="translate(17.1 21.3)"/><circle class="d" cx="1.7" cy="1.7" r="1.7" transform="translate(24.3 19.1)"/><circle class="d" cx="1.7" cy="1.7" r="1.7" transform="translate(22.1 24.6)"/><circle class="d" cx="1.7" cy="1.7" r="1.7" transform="translate(29 16.1)"/><circle class="d" cx="1.7" cy="1.7" r="1.7" transform="translate(27.3 23)"/><circle class="c" cx="9" cy="9" r="9" transform="translate(37.3 79.2)"/><circle class="d" cx="1.5" cy="1.5" r="1.5" transform="translate(41.2 83.8)"/><circle class="d" cx="1.5" cy="1.5" r="1.5" transform="translate(46.1 80.3)"/><circle class="d" cx="1.5" cy="1.5" r="1.5" transform="translate(39.7 88.4)"/><circle class="d" cx="1.5" cy="1.5" r="1.5" transform="translate(46.1 86.5)"/><circle class="d" cx="1.5" cy="1.5" r="1.5" transform="translate(44.1 91.4)"/><circle class="d" cx="1.5" cy="1.5" r="1.5" transform="translate(50.2 83.8)"/><circle class="d" cx="1.5" cy="1.5" r="1.5" transform="translate(48.8 89.9)"/><circle class="c" cx="9" cy="9" r="9" transform="translate(53.9 19)"/><circle class="d" cx="1.5" cy="1.5" r="1.5" transform="translate(57.7 23.6)"/><circle class="d" cx="1.5" cy="1.5" r="1.5" transform="translate(62.7 20.1)"/><circle class="d" cx="1.5" cy="1.5" r="1.5" transform="translate(56.3 28.2)"/><circle class="d" cx="1.5" cy="1.5" r="1.5" transform="translate(62.7 26.3)"/><circle class="d" cx="1.5" cy="1.5" r="1.5" transform="translate(60.7 31.1)"/><circle class="d" cx="1.5" cy="1.5" r="1.5" transform="translate(66.8 23.6)"/><circle class="d" cx="1.5" cy="1.5" r="1.5" transform="translate(65.3 29.7)"/><circle class="c" cx="9" cy="9" r="9" transform="translate(48.4 50.8)"/><circle class="d" cx="1.5" cy="1.5" r="1.5" transform="translate(52.3 55.4)"/><circle class="d" cx="1.5" cy="1.5" r="1.5" transform="translate(57.2 51.9)"/><circle class="d" cx="1.5" cy="1.5" r="1.5" transform="translate(50.8 60)"/><circle class="d" cx="1.5" cy="1.5" r="1.5" transform="translate(57.2 58.1)"/><circle class="d" cx="1.5" cy="1.5" r="1.5" transform="translate(55.3 62.9)"/><circle class="d" cx="1.5" cy="1.5" r="1.5" transform="translate(61.4 55.4)"/><circle class="d" cx="1.5" cy="1.5" r="1.5" transform="translate(59.9 61.5)"/><circle class="c" cx="9" cy="9" r="9" transform="translate(23.4 41.7)"/><circle class="d" cx="1.5" cy="1.5" r="1.5" transform="translate(27.2 46.3)"/><circle class="d" cx="1.5" cy="1.5" r="1.5" transform="translate(32.1 42.9)"/><circle class="d" cx="1.5" cy="1.5" r="1.5" transform="translate(25.8 50.9)"/><circle class="d" cx="1.5" cy="1.5" r="1.5" transform="translate(32.1 49)"/><circle class="d" cx="1.5" cy="1.5" r="1.5" transform="translate(30.2 53.9)"/><circle class="d" cx="1.5" cy="1.5" r="1.5" transform="translate(36.3 46.3)"/><circle class="d" cx="1.5" cy="1.5" r="1.5" transform="translate(34.8 52.4)"/><path class="e" d="M36.3,66.7a5.1,5.1,0,1,0,5.1,5.1A5.121,5.121,0,0,0,36.3,66.7Zm0,7.7A2.7,2.7,0,1,1,39,71.7,2.689,2.689,0,0,1,36.3,74.4Z"/><path class="e" d="M52.3,38.8a5.1,5.1,0,1,0,5.1,5.1A5.121,5.121,0,0,0,52.3,38.8Zm0,7.8A2.7,2.7,0,1,1,55,43.9,2.689,2.689,0,0,1,52.3,46.6Z"/><path class="e" d="M22.2,33.7a5.1,5.1,0,1,0,5.1,5.1A5.121,5.121,0,0,0,22.2,33.7Zm0,7.8a2.7,2.7,0,1,1,2.7-2.7A2.825,2.825,0,0,1,22.2,41.5Z"/><path class="e" d="M77,13a5.1,5.1,0,1,0,5.1,5.1A5.121,5.121,0,0,0,77,13Zm0,7.7A2.7,2.7,0,1,1,79.7,18,2.689,2.689,0,0,1,77,20.7Z"/><path class="f" d="M36.8,34h0a2.808,2.808,0,0,1,.1-3.9L42,25.3a2.808,2.808,0,0,1,3.9.1h0a2.808,2.808,0,0,1-.1,3.9l-5.1,4.8A2.808,2.808,0,0,1,36.8,34Z"/><path class="f" d="M71.7,48.3h0a2.724,2.724,0,0,1-3.9.4l-5.5-4.4a2.724,2.724,0,0,1-.4-3.9h0a2.724,2.724,0,0,1,3.9-.4l5.5,4.4A2.724,2.724,0,0,1,71.7,48.3Z"/><path class="f" d="M58.1,80.2h0a2.724,2.724,0,0,1-3.9.4l-5.5-4.4a2.724,2.724,0,0,1-.4-3.9h0a2.724,2.724,0,0,1,3.9-.4l5.5,4.4A2.734,2.734,0,0,1,58.1,80.2Z"/><path class="f" d="M50.5,108.5h0a2.724,2.724,0,0,1-3.9.4l-5.5-4.4a2.724,2.724,0,0,1-.4-3.9h0a2.724,2.724,0,0,1,3.9-.4l5.5,4.4A2.724,2.724,0,0,1,50.5,108.5Z"/></g></svg>