<svg xmlns="http://www.w3.org/2000/svg" viewBox="2768 1142 165.4 82.7"><defs><style>.a{fill:#50b86b;}.b{fill:#8fc23e;}.c{fill:#c8db52;}.d{fill:#e3472c;}</style></defs><g transform="translate(2768 1142)"><path class="a" d="M82.7,82.7A82.667,82.667,0,0,0,165.4,0H0A82.667,82.667,0,0,0,82.7,82.7Z"/><path class="b" d="M82.7,78.2A78.185,78.185,0,0,0,160.9,0H4.4A78.271,78.271,0,0,0,82.7,78.2Z"/><path class="c" d="M82.7,74.4A74.387,74.387,0,0,0,157.1,0H8.3A74.387,74.387,0,0,0,82.7,74.4Z"/><path class="d" d="M82.7,68.6A68.583,68.583,0,0,0,151.3,0H14.1A68.583,68.583,0,0,0,82.7,68.6Z"/><path d="M25.1,4c2.3-.7,7.5-.2,8.2,2s-3.4,5.6-5.7,6.3A4.334,4.334,0,1,1,25.1,4Z"/><path d="M30.1,16.8c2.1-1.2,7.3-2,8.5.1s-2,6.2-4.1,7.4a4.34,4.34,0,0,1-5.9-1.5A4.508,4.508,0,0,1,30.1,16.8Z"/><path d="M35.9,29.9c1.7-1.7,6.6-3.6,8.3-1.9s-.6,6.5-2.3,8.2a4.2,4.2,0,0,1-6.1-.2A4.122,4.122,0,0,1,35.9,29.9Z"/><path d="M44.7,40.9c1.8-1.6,6.7-3.6,8.3-1.8s-.6,6.5-2.4,8.2a4.376,4.376,0,0,1-6.1-.2A4.317,4.317,0,0,1,44.7,40.9Z"/><path d="M56.1,50.6c1.6-1.8,6.2-4.3,8-2.7s.1,6.5-1.4,8.4a4.305,4.305,0,0,1-6.1.5A4.521,4.521,0,0,1,56.1,50.6Z"/><path d="M69.9,58.6c.3-2.4,2.9-7,5.3-6.6,2.4.3,3.6,5.5,3.3,7.8a4.388,4.388,0,0,1-4.9,3.7A4.247,4.247,0,0,1,69.9,58.6Z"/><path d="M84.3,59.5c0-2.4,1.9-7.3,4.3-7.3S93,57.1,93,59.5a4.354,4.354,0,0,1-4.3,4.4A4.439,4.439,0,0,1,84.3,59.5Z"/><path d="M135.8,5.3c-2.3-.7-7.5-.2-8.2,2s3.4,5.6,5.7,6.3a4.334,4.334,0,0,0,2.5-8.3Z"/><path d="M130.8,18.1c-2.1-1.2-7.3-2-8.5.1s2,6.2,4.1,7.4a4.34,4.34,0,0,0,5.9-1.5A4.484,4.484,0,0,0,130.8,18.1Z"/><path d="M125.8,31.9c-1.7-1.7-6.6-3.6-8.3-1.9s.6,6.5,2.3,8.2a4.2,4.2,0,0,0,6.1-.2A4.287,4.287,0,0,0,125.8,31.9Z"/><path d="M117,42.9c-1.8-1.6-6.7-3.6-8.3-1.8s.6,6.5,2.4,8.2a4.376,4.376,0,0,0,6.1-.2A4.507,4.507,0,0,0,117,42.9Z"/><path d="M105.5,52.6c-1.6-1.8-6.2-4.3-8-2.7s-.1,6.5,1.4,8.4a4.305,4.305,0,0,0,6.1.5A4.426,4.426,0,0,0,105.5,52.6Z"/><path d="M39.6,3.7c1.7-.5,5.6-.2,6.2,1.5s-2.6,4-4.3,4.5a3.267,3.267,0,0,1-4-2.1A3.121,3.121,0,0,1,39.6,3.7Z"/><path d="M43.4,12.9c1.5-.9,5.4-1.4,6.3,0,.9,1.5-1.5,4.4-3.1,5.3a3.235,3.235,0,0,1-4.4-1.1A2.937,2.937,0,0,1,43.4,12.9Z"/><path d="M47.7,22.2c1.3-1.2,5-2.6,6.2-1.3,1.2,1.2-.4,4.6-1.7,5.8a3.388,3.388,0,0,1-4.6-.1A2.97,2.97,0,0,1,47.7,22.2Z"/><path d="M54.3,30c1.3-1.2,5-2.5,6.2-1.3s-.5,4.6-1.8,5.8a3.388,3.388,0,0,1-4.6-.1A3.057,3.057,0,0,1,54.3,30Z"/><path d="M62.8,36.9c1.2-1.3,4.6-3.1,6-2s.1,4.7-1.1,6a3.4,3.4,0,0,1-4.6.4A3.144,3.144,0,0,1,62.8,36.9Z"/><path d="M73.1,42.6c.3-1.7,2.2-5,4-4.7s2.7,3.9,2.5,5.6a3.287,3.287,0,0,1-6.5-.9Z"/><path d="M83.9,43.3c0-1.7,1.4-5.2,3.2-5.2s3.3,3.5,3.3,5.2a3.138,3.138,0,0,1-3.2,3.1A3.227,3.227,0,0,1,83.9,43.3Z"/><path d="M124,4.6c-1.7-.5-5.6-.2-6.2,1.5s2.6,4,4.3,4.5a3.337,3.337,0,0,0,4.1-2.1A3.063,3.063,0,0,0,124,4.6Z"/><path d="M120.2,13.8c-1.5-.9-5.4-1.4-6.3,0-.9,1.5,1.5,4.4,3.1,5.3a3.235,3.235,0,0,0,4.4-1.1A2.977,2.977,0,0,0,120.2,13.8Z"/><path d="M116.5,23.6c-1.3-1.2-5-2.6-6.2-1.3-1.2,1.2.4,4.6,1.7,5.8a3.388,3.388,0,0,0,4.6-.1A2.971,2.971,0,0,0,116.5,23.6Z"/><path d="M109.9,31.5c-1.3-1.2-5-2.5-6.2-1.3s.5,4.6,1.8,5.8a3.388,3.388,0,0,0,4.6-.1A3.05,3.05,0,0,0,109.9,31.5Z"/><path d="M101.4,38.4c-1.2-1.3-4.6-3.1-6-2s-.1,4.7,1.1,6a3.4,3.4,0,0,0,4.6.4A3.15,3.15,0,0,0,101.4,38.4Z"/></g></svg>