<svg xmlns="http://www.w3.org/2000/svg" viewBox="1664 659 162.779 380.6"><defs><style>.a{fill:#ffd883;}.b{fill:#f8c09c;}.c{fill:#dc527d;}.d{fill:#de94c0;}.e{fill:#ef937e;}.f{fill:#fff;}.g{fill:#50b86b;}.h{fill:#dc1c4a;}</style></defs><g transform="translate(1663.939 659)"><path class="a" d="M139.2,244.8h0a6.487,6.487,0,0,1-6.5-6.5V79a6.487,6.487,0,0,1,6.5-6.5h0a6.487,6.487,0,0,1,6.5,6.5V238.3A6.619,6.619,0,0,1,139.2,244.8Z"/><path class="a" d="M107.2,245.9H60.5a36.746,36.746,0,0,1-36.6-36.6V84.8A36.746,36.746,0,0,1,60.5,48.2h46.7a36.746,36.746,0,0,1,36.6,36.6V209.2A36.768,36.768,0,0,1,107.2,245.9Z"/><path class="a" d="M30.4,246.7h0a6.487,6.487,0,0,1-6.5-6.5V81a6.487,6.487,0,0,1,6.5-6.5h0A6.487,6.487,0,0,1,36.9,81V240.3A6.466,6.466,0,0,1,30.4,246.7Z"/><path class="b" d="M62.3,277.5h0a8.644,8.644,0,0,0,1.3-12l-48.4-60a8.644,8.644,0,0,0-12-1.3h0a8.644,8.644,0,0,0-1.3,12l48.4,60A8.472,8.472,0,0,0,62.3,277.5Z"/><path class="b" d="M5.3,218.9h0a8.614,8.614,0,0,0,11.9-2l44.9-62.7a8.614,8.614,0,0,0-2-11.9h0a8.614,8.614,0,0,0-11.9,2L3.3,207.1A8.479,8.479,0,0,0,5.3,218.9Z"/><path class="b" d="M100.6,274h0a8.644,8.644,0,0,1-1.3-12l48.4-60a8.644,8.644,0,0,1,12-1.3h0a8.644,8.644,0,0,1,1.3,12l-48.4,60A8.463,8.463,0,0,1,100.6,274Z"/><path class="b" d="M157.6,215.5h0a8.614,8.614,0,0,1-11.9-2l-44.9-62.7a8.614,8.614,0,0,1,2-11.9h0a8.614,8.614,0,0,1,11.9,2l44.9,62.7A8.614,8.614,0,0,1,157.6,215.5Z"/><rect class="b" width="20" height="144.8" transform="translate(114.084 379.325) rotate(180)"/><path class="c" d="M94.2,380.6c.6-14.3,9.8-25.6,21.1-25.6s20.5,11.3,21.1,25.6Z"/><rect class="b" width="20" height="144.8" transform="translate(53.8 235.8)"/><path class="c" d="M74.9,380.6c-.6-14.3-9.8-25.6-21.1-25.6s-20.5,11.3-21.1,25.6Z"/><path class="d" d="M122.4,218.2,47,217.5,8.7,282.4l.4.7H159Z"/><path class="d" d="M126.1,169.3A41.441,41.441,0,0,0,84.8,128h0a41.441,41.441,0,0,0-41.3,41.3v54.5H126V169.3Z"/><path class="e" d="M82.9,137.5h0a6.018,6.018,0,0,1-6-6V118.2a6.018,6.018,0,0,1,6-6h0a6.018,6.018,0,0,1,6,6v13.3A6.018,6.018,0,0,1,82.9,137.5Z"/><path class="b" d="M114.1,119.9H53.6a26.076,26.076,0,0,1-26-26V63.4a26.076,26.076,0,0,1,26-26h60.6a26.076,26.076,0,0,1,26,26V93.9A26.227,26.227,0,0,1,114.1,119.9Z"/><path class="a" d="M83.8,0h0A63.761,63.761,0,0,0,20.2,63.6V79.8c18.4-8,40.2-12.6,63.6-12.6a165.636,165.636,0,0,1,22.5,1.5V49.1a1.5,1.5,0,1,1,3,0V69.2l7.2,1.2V57.7a3.1,3.1,0,0,1,6.2,0V71.8a150.907,150.907,0,0,1,24.6,8.1V63.6C147.5,28.6,118.8,0,83.8,0Z"/><circle class="f" cx="9.9" cy="9.9" r="9.9" transform="translate(48.6 70)"/><circle class="g" cx="4.3" cy="4.3" r="4.3" transform="translate(54.2 75.6)"/><circle class="f" cx="9.9" cy="9.9" r="9.9" transform="translate(97.3 70)"/><circle class="g" cx="4.3" cy="4.3" r="4.3" transform="translate(102.9 75.6)"/><path class="e" d="M82.9,96.2h0a6.018,6.018,0,0,1-6-6h0a6.018,6.018,0,0,1,6-6h0a6.018,6.018,0,0,1,6,6h0A6.018,6.018,0,0,1,82.9,96.2Z"/><path d="M80.6,108.1a7.271,7.271,0,0,0-7,5,11.07,11.07,0,0,1-2.7-7.2,10.854,10.854,0,0,1,1.4-5.4l22.4,7.1a11.338,11.338,0,0,1-7,8.7,5.283,5.283,0,0,0,.1-1.3A6.984,6.984,0,0,0,80.6,108.1Z"/><path class="h" d="M73.7,113.1a7.271,7.271,0,0,1,7-5,7.153,7.153,0,0,1,7.3,7,6.151,6.151,0,0,1-.1,1.3,12.873,12.873,0,0,1-4.8,1A12.494,12.494,0,0,1,73.7,113.1Z"/><rect class="c" width="83" height="9.1" transform="translate(43.1 214.8)"/></g></svg>