<svg xmlns="http://www.w3.org/2000/svg" viewBox="1351 625 312.983 415"><defs><style>.a{fill:#2276bb;}.b{fill:#dc1c4a;}.c{fill:#66342d;}.d{fill:#f8c09c;}.e{fill:#8fc23e;}.f{fill:#0f2436;}.g{fill:#ef937e;}.h{fill:#fff;}</style></defs><g transform="translate(1350.992 625)"><rect class="a" width="18.5" height="134" transform="translate(185.068 413.802) rotate(180)"/><path class="b" d="M166.7,415c.6-13.2,9.1-23.7,19.5-23.7s19,10.5,19.5,23.7Z"/><rect class="a" width="18.5" height="134" transform="translate(129.3 281)"/><circle class="c" cx="56.8" cy="56.8" r="56.8" transform="translate(103.1 10.5)"/><ellipse class="d" cx="6" cy="8.4" rx="6" ry="8.4" transform="translate(198.8 95.9)"/><path class="e" d="M198.9,202.6A41.014,41.014,0,0,0,158,161.7h0a41.014,41.014,0,0,0-40.9,40.9v54.1h81.8Z"/><path class="f" d="M158,304.9h0A41.014,41.014,0,0,0,198.9,264v-7.3H117.1V264A41.014,41.014,0,0,0,158,304.9Z"/><path class="g" d="M160.3,171.3h-4.6a5.121,5.121,0,0,1-5.1-5.1V150.6a5.121,5.121,0,0,1,5.1-5.1h4.6a5.121,5.121,0,0,1,5.1,5.1v15.6A5.121,5.121,0,0,1,160.3,171.3Z"/><path class="d" d="M172.6,154.5H147.1a28.3,28.3,0,0,1-28.2-28.2V39.5a28.3,28.3,0,0,1,28.2-28.2h25.5a28.3,28.3,0,0,1,28.2,28.2v86.8A28.3,28.3,0,0,1,172.6,154.5Z"/><circle class="c" cx="23.1" cy="23.1" r="23.1" transform="translate(152.6 21.5)"/><ellipse class="c" cx="23.1" cy="16.3" rx="23.1" ry="16.3" transform="translate(119 21.5)"/><ellipse class="c" cx="19.5" cy="14.7" rx="19.5" ry="14.7" transform="translate(119 23.1)"/><circle class="h" cx="9.2" cy="9.2" r="9.2" transform="translate(129.3 77.8)"/><circle class="h" cx="9.2" cy="9.2" r="9.2" transform="translate(170.6 77.8)"/><circle class="c" cx="23.1" cy="23.1" r="23.1" transform="translate(115.4 8.4)"/><circle class="c" cx="23.1" cy="23.1" r="23.1" transform="translate(115.4 29.3)"/><circle class="c" cx="23.1" cy="23.1" r="23.1" transform="translate(119.5 0)"/><circle class="c" cx="23.1" cy="23.1" r="23.1" transform="translate(148.5 0)"/><circle class="c" cx="23.1" cy="23.1" r="23.1" transform="translate(92.3 14.7)"/><circle class="c" cx="23.1" cy="23.1" r="23.1" transform="translate(171.7 8.4)"/><circle class="a" cx="3.9" cy="3.9" r="3.9" transform="translate(134.6 83.1)"/><path class="g" d="M161.6,112.4h-3.5a3.8,3.8,0,0,1-3.8-3.8V100a3.8,3.8,0,0,1,3.8-3.8h3.5a3.8,3.8,0,0,1,3.8,3.8v8.6A3.736,3.736,0,0,1,161.6,112.4Z"/><circle class="a" cx="3.9" cy="3.9" r="3.9" transform="translate(175.9 83.1)"/><path d="M162.6,128.6a8.28,8.28,0,0,1,8,6,13.981,13.981,0,0,0,3.1-8.7,14.2,14.2,0,0,0-1.6-6.5L146.4,128a13.8,13.8,0,0,0,8,10.5,7.568,7.568,0,0,1-.1-1.5A8.179,8.179,0,0,1,162.6,128.6Z"/><path class="b" d="M170.6,134.6a8.28,8.28,0,0,0-8-6,8.386,8.386,0,0,0-8.4,8.4c0,.5.1,1,.1,1.5a13.092,13.092,0,0,0,5.6,1.2A14.1,14.1,0,0,0,170.6,134.6Z"/><path class="d" d="M189.2,109.9c0,4.6-2.7,8.4-6,8.4"/><ellipse class="d" cx="6" cy="8.4" rx="6" ry="8.4" transform="translate(109.4 97.4)"/><ellipse class="g" cx="2.3" cy="6.6" rx="2.3" ry="6.6" transform="translate(202.5 97.7)"/><ellipse class="g" cx="2.3" cy="6.6" rx="2.3" ry="6.6" transform="translate(113.1 99.2)"/><path class="b" d="M148.9,415c-.6-13.2-9.1-23.7-19.5-23.7s-19,10.5-19.5,23.7Z"/><path class="e" d="M234.5,235.9l-4,2.9a5.539,5.539,0,0,1-7.6-1.2l-44.4-62a5.539,5.539,0,0,1,1.2-7.6l4-2.9a5.539,5.539,0,0,1,7.6,1.2l44.4,62A5.418,5.418,0,0,1,234.5,235.9Z"/><path class="e" d="M297.1,189.4l2.6,4.1a5.457,5.457,0,0,1-1.6,7.5l-64.2,41.1a5.457,5.457,0,0,1-7.5-1.6l-2.6-4.1a5.457,5.457,0,0,1,1.6-7.5l64.2-41.1A5.457,5.457,0,0,1,297.1,189.4Z"/><path class="d" d="M296.5,193.6l-2-2.7a3.706,3.706,0,0,1,.9-5.2l9.7-7a3.706,3.706,0,0,1,5.2.9l2,2.7a3.706,3.706,0,0,1-.9,5.2l-9.7,7A3.721,3.721,0,0,1,296.5,193.6Z"/><path class="d" d="M290.6,198.6l-1.7-2.3a3.176,3.176,0,0,1,.7-4.4l7.9-5.7a3.176,3.176,0,0,1,4.4.7l1.7,2.3a3.176,3.176,0,0,1-.7,4.4l-7.9,5.7A3.031,3.031,0,0,1,290.6,198.6Z"/><path class="g" d="M299.8,179.3l1.1.4a1.173,1.173,0,0,1,.7,1.6l-1.9,5a1.173,1.173,0,0,1-1.6.7l-1.1-.4a1.173,1.173,0,0,1-.7-1.6l1.9-5A1.217,1.217,0,0,1,299.8,179.3Z"/><path class="e" d="M78.5,234.4l4,2.9a5.539,5.539,0,0,0,7.6-1.2l44.4-62a5.539,5.539,0,0,0-1.2-7.6l-4-2.9a5.539,5.539,0,0,0-7.6,1.2l-44.4,62A5.539,5.539,0,0,0,78.5,234.4Z"/><path class="e" d="M15.9,187.8l-2.6,4.1a5.457,5.457,0,0,0,1.6,7.5l64.2,41.1a5.457,5.457,0,0,0,7.5-1.6l2.6-4.1a5.457,5.457,0,0,0-1.6-7.5L23.4,186.2A5.457,5.457,0,0,0,15.9,187.8Z"/><path class="d" d="M16.5,192l2-2.7a3.706,3.706,0,0,0-.9-5.2l-9.7-7a3.706,3.706,0,0,0-5.2.9l-2,2.7a3.706,3.706,0,0,0,.9,5.2l9.7,7A3.706,3.706,0,0,0,16.5,192Z"/><path class="d" d="M22.4,197.1l1.7-2.3a3.176,3.176,0,0,0-.7-4.4l-7.9-5.7a3.176,3.176,0,0,0-4.4.7l-1.7,2.3a3.176,3.176,0,0,0,.7,4.4l7.9,5.7A3.176,3.176,0,0,0,22.4,197.1Z"/><path class="g" d="M13.2,177.7l-1.1.4a1.173,1.173,0,0,0-.7,1.6l1.9,5a1.173,1.173,0,0,0,1.6.7L16,185a1.173,1.173,0,0,0,.7-1.6l-1.9-5A1.183,1.183,0,0,0,13.2,177.7Z"/></g></svg>