<svg xmlns="http://www.w3.org/2000/svg" viewBox="2986 1109 176.4 127"><defs><style>.a{fill:#ffd883;}.b{fill:#fdbe40;}</style></defs><g transform="translate(2986 1109)"><path class="a" d="M51.8,38,32,8.6H27.3L47,38"/><path class="a" d="M0,38,19.8,8.6h4.7L4.8,38"/><path class="a" d="M176.3,37.4,156.6,8.1h-4.7l19.7,29.3"/><path class="a" d="M124.6,37.4,144.4,8.1H149L129.4,37.4"/><path class="b" d="M83.2,9.7H21.8a3.329,3.329,0,0,1-3.3-3.3h0A3.351,3.351,0,0,1,21.8,3H83.2a3.329,3.329,0,0,1,3.3,3.3h0A3.23,3.23,0,0,1,83.2,9.7Z"/><path class="b" d="M155.3,9.7H93.9a3.329,3.329,0,0,1-3.3-3.3h0a3.329,3.329,0,0,1,3.3-3.3h61.4a3.329,3.329,0,0,1,3.3,3.3h0A3.329,3.329,0,0,1,155.3,9.7Z"/><path class="b" d="M25.9,63.8A25.905,25.905,0,0,0,51.8,37.9H0A25.842,25.842,0,0,0,25.9,63.8Z"/><path class="a" d="M116.3,127H64.8a3.329,3.329,0,0,1-3.3-3.3h0a3.329,3.329,0,0,1,3.3-3.3h51.4a3.329,3.329,0,0,1,3.3,3.3h0A3.182,3.182,0,0,1,116.3,127Z"/><path class="b" d="M111.3,120.3H69.8a3.329,3.329,0,0,1-3.3-3.3h0a3.329,3.329,0,0,1,3.3-3.3h41.4a3.329,3.329,0,0,1,3.3,3.3h0A3.182,3.182,0,0,1,111.3,120.3Z"/><rect class="b" width="6.1" height="107.3" transform="translate(86.6 6.3)"/><circle class="a" cx="6.3" cy="6.3" r="6.3" transform="translate(83.3 0)"/><path class="b" d="M150.5,63.3a25.905,25.905,0,0,0,25.9-25.9H124.6A25.905,25.905,0,0,0,150.5,63.3Z"/></g></svg>