<svg xmlns="http://www.w3.org/2000/svg" viewBox="1610 1342 95.617 111.593"><defs><style>.a{fill:#c0591a;}.b{fill:#f5f6e8;}.c{fill:#aa4a0e;}</style></defs><g transform="translate(1610.029 1342.028)"><path class="a" d="M5.3,41.6A25.891,25.891,0,0,1,46.4,10.1c8.7,11.3,25.8,52.8,14.5,61.5S14,53,5.3,41.6Z"/><path class="b" d="M89.1,99.9l-4,3.7a6.1,6.1,0,0,1-8.5-.3L46.5,70.7a6.1,6.1,0,0,1,.3-8.5l4-3.7a6.1,6.1,0,0,1,8.5.3L89.4,91.4A6.011,6.011,0,0,1,89.1,99.9Z"/><circle class="c" cx="2.4" cy="2.4" r="2.4" transform="translate(16.5 34.2)"/><circle class="c" cx="2.4" cy="2.4" r="2.4" transform="translate(27.5 25)"/><circle class="c" cx="2.4" cy="2.4" r="2.4" transform="translate(16.5 15.2)"/><circle class="c" cx="2.4" cy="2.4" r="2.4" transform="translate(32.4 48.3)"/><circle class="c" cx="2.4" cy="2.4" r="2.4" transform="translate(48.3 36.3)"/><circle class="c" cx="2.4" cy="2.4" r="2.4" transform="translate(41.5 20.1)"/><circle class="c" cx="2.4" cy="2.4" r="2.4" transform="translate(27.5 6.5)"/><path class="b" d="M87.4,105.1l-12.1-7a4.107,4.107,0,0,1-1.5-5.7l1.9-3.3a4.107,4.107,0,0,1,5.7-1.5l12.1,7a4.107,4.107,0,0,1,1.5,5.7l-1.9,3.3A4.286,4.286,0,0,1,87.4,105.1Z"/><circle class="c" cx="2.4" cy="2.4" r="2.4" transform="translate(8 25)"/><path class="b" d="M74.2,108.1,71.8,94.3a4.112,4.112,0,0,1,3.4-4.8l3.8-.7a4.112,4.112,0,0,1,4.8,3.4L86.2,106a4.112,4.112,0,0,1-3.4,4.8l-3.8.7A4.163,4.163,0,0,1,74.2,108.1Z"/></g></svg>